PathFileType	4	(X/Y/Z)	C:/Users/beibeiliu/ov580/test_trc/User2\sequence.9_training_dense_left.trc
DataRate	CameraRate	NumFrames	NumMarkers	Units	OrigDataRate	OrigDataStartFrame	OrigNumFrames
120	120	7	19	mm	120	54	80
Frame#	Time	ThumbCMC			ThumbMCP			ThumbIP			ThumbTip			IndexMCP			IndexPIP			IndexTip			MiddleMCP			MiddlePIP			MiddleTip			RingMCP			RingPIP			RingTip			PinkyMCP			PinkyPIP			PinkyTip			BackHand1			BackHand2			BackHand3	
		X0	Y0	Z0	X1	Y1	Z1	X2	Y2	Z2	X3	Y3	Z3	X4	Y4	Z4	X5	Y5	Z5	X6	Y6	Z6	X7	Y7	Z7	X8	Y8	Z8	X9	Y9	Z9	X10	Y10	Z10	X11	Y11	Z11	X12	Y12	Z12	X13	Y13	Z13	X14	Y14	Z14	X15	Y15	Z15	X16	Y16	Z16	X17	Y17	Z17	X18	Y18	Z18	
53	0.441667	-265.912	-9.12381	-27.166	-280.418	-7.04099	-60.5686	-277.017	-11.375	-97.7851	-260.993	-17.1273	-116.48	-266.745	-48.8873	-102.267	-266.468	-57.5402	-130.365	-264.881	-65.904	-154.038	-254.072	-63.8034	-113.667	-251.792	-72.1577	-142.385	-248.918	-81.3819	-170.703	-235.075	-70.1542	-105.362	-231.504	-76.8489	-130.092	-233.973	-81.095	-157.426	-213.194	-69.6872	-89.5267	-215.391	-73.3924	-117.257	-218.833	-80.7846	-139.12	-230.351	-68.668	-44.9783	-232.601	-66.8057	-15.3927	-264.123	-47.1278	-37.2488	
54	0.45	-263.75	-2.61684	-28.5272	-276.002	5.8096	-54.508	-277.145	2.17426	-92.7526	-263.683	-6.70591	-113.584	-275.241	-39.3597	-100.748	-279.202	-48.4763	-130.217	-279.795	-55.7093	-151.978	-262.846	-59.2485	-109.422	-267.094	-63.5376	-141.235	-270.029	-72.9723	-169.801	-244.696	-69.2024	-103.142	-247.132	-76.039	-131.71	-252.851	-77.1658	-157.612	-226.53	-71.8788	-92.3386	-230.396	-75.1312	-116.938	-236.783	-78.5629	-140.513	-240.875	-66.2353	-46.8392	-237.13	-63.885	-14.0174	-266.159	-37.4283	-33.6441	
55	0.458333	-254.451	2.32964	-26.3101	-269.078	15.0602	-54.8968	-268.43	11.2796	-88.7904	-262.331	2.94481	-116.286	-276.269	-29.5943	-97.6571	-281.112	-36.2761	-126.989	-285.129	-44.3896	-152.469	-270.944	-48.7765	-108.239	-276.414	-53.2648	-139.154	-277.904	-63.2185	-165.104	-255.501	-61.7539	-100.822	-259.341	-69.6074	-132.553	-264.377	-70.782	-157.026	-235.135	-72.9598	-90.6667	-240.68	-72.516	-114.035	-248.303	-79.4148	-142.04	-248.18	-59.7861	-45.7943	-246.618	-59.3418	-15.491	-267.255	-32.052	-29.1568	
56	0.466667	-245.71	9.73001	-24.9646	-256.395	26.3342	-51.1408	-259.204	25.9351	-87.4816	-253.267	17.1663	-112.169	-274.666	-14.466	-98.5942	-279.811	-17.4874	-125.155	-285.156	-23.1952	-149.651	-272.084	-35.7633	-109.032	-276.128	-39.5303	-139.445	-281.672	-46.9672	-168.227	-258.54	-52.4662	-100.546	-264.053	-57.123	-131.883	-271.732	-54.8509	-158.872	-240.48	-64.9485	-87.4864	-246.595	-65.283	-112.663	-256.705	-69.6845	-138.718	-252.047	-57.4291	-48.8382	-248.601	-57.3495	-11.9393	-262.795	-20.1534	-31.6853	
57	0.475	-228.033	12.5425	-18.1189	-235.962	31.8641	-43.3886	-239.736	31.6915	-81.4007	-237.265	24.8021	-105.043	-264.511	1.56364	-98.1437	-270.32	-2.00832	-123.21	-277.514	-3.43192	-149.487	-267.062	-20.7587	-106.484	-270.61	-20.6733	-132.748	-279.376	-23.0592	-167.007	-260.354	-38.4689	-103.683	-266.002	-38.0823	-128.455	-270.759	-35.9097	-153.452	-244.556	-57.9701	-88.7648	-252.129	-57.0052	-115.886	-262.38	-55.5606	-135.129	-249.962	-48.1419	-45.105	-249.499	-46.0035	-12.3034	-254.621	-12.662	-26.2944	
58	0.483333	-210.826	16.2442	-13.0136	-214.02	34.5155	-39.036	-217.587	41.2642	-72.7549	-219.767	33.3988	-101.323	-249.37	15.5853	-90.5915	-255.955	16.8103	-116.896	-265.575	17.7406	-147.111	-257.076	-4.63265	-100.833	-262.434	0.446623	-134.422	-271.552	3.19946	-162.761	-256.322	-24.9632	-97.9908	-261.67	-21.3335	-126.669	-266.04	-14.8044	-150.42	-247.719	-47.3799	-88.4159	-252.45	-40.3994	-112.163	-263.132	-34.7251	-136.006	-249.505	-33.4265	-45.0464	-246.539	-40.9997	-10.08	-244.252	-4.38044	-24.5178	
59	0.491667	-192.297	11.7084	-8.28214	-191.104	31.9871	-34.2739	-193.907	39.9651	-68.1906	-198.612	32.6364	-95.6179	-231.268	29.6422	-88.9898	-236.327	36.2956	-114.978	-243.755	35.5799	-137.495	-245.188	10.8588	-99.4566	-247.044	18.36	-125.128	-255.968	21.6034	-155.499	-249.99	-8.79594	-97.5554	-252.382	-0.724725	-123.617	-258.307	6.51932	-151.319	-245.986	-35.1023	-84.6994	-251.822	-24.8494	-114.062	-255.447	-16.1505	-132.013	-246.949	-28.4011	-38.5169	-245.966	-33.2359	-8.19589	-229.323	5.66741	-19.3245	
